{"title":"Teenage Bank Heist 2012 DVDRip XviD juggs","uid":8212853,"size":750540471,"categoryP":"video","categoryS":"movies","magnet":"?xt=urn:btih:d1814dbe703512e2870e447ebf7856f54cde24b8&amp;dn=Teenage+Bank+Heist+2012+DVDRip+XviD+juggs&amp;tr=udp%3A%2F%2Ftracker.openbittorrent.com%3A80&amp;tr=udp%3A%2F%2Fopen.demonii.com%3A1337&amp;tr=udp%3A%2F%2Ftracker.coppersurfer.tk%3A6969&amp;tr=udp%3A%2F%2Fexodus.desync.com%3A6969","seeders":0,"leechers":1,"uploader":"juggs99","files":3,"time":1362272742,"description":"Source : DVDR-IGUANA\n\n\n\nFormat : AVI\nFormat/Info : Audio Video Interleave\nFile size : 701 MiB\nDuration : 1h 25mn\nOverall bit rate : 1 141 Kbps\nWriting library : VirtualDub build 32842/release\n\nVideo\nID : 0\nFormat : MPEG-4 Visual\nFormat profile : Advanced Simple@L5\nFormat settings, BVOP : 4\nFormat settings, QPel : No\nFormat settings, GMC : No warppoints\nFormat settings, Matrix : Default (H.263)\nMuxing mode : Packed bitstream\nCodec ID : XVID\nCodec ID/Hint : XviD\nDuration : 1h 25mn\nBit rate : 1 003 Kbps\nWidth : 640 pixels\nHeight : 352 pixels\nDisplay aspect ratio : 16:9\nFrame rate : 23.976 fps\nColor space : YUV\nChroma subsampling : 4:2:0\nBit depth : 8 bits\nScan type : Progressive\nCompression mode : Lossy\nBits/(Pixel*Frame) : 0.186\nStream size : 617 MiB (88%)\nWriting library : XviD 64\n\nAudio\nID : 1\nFormat : MPEG Audio\nFormat version : Version 1\nFormat profile : Layer 3\nCodec ID : 55\nCodec ID/Hint : MP3\nDuration : 1h 25mn\nBit rate mode : Constant\nBit rate : 128 Kbps\nChannel(s) : 2 channels\nSampling rate : 44.1 KHz\nCompression mode : Lossy\nStream size : 78.7 MiB (11%)\nAlignment : Split accross interleaves\nInterleave, duration : 42 ms (1.00 video frame)\nInterleave, preload duration : 500 ms\nWriting library : LAME3.99r\nEncoding settings : -m s -V 4 -q 3 -lowpass 17 -b 128\n\n\nPlot\nWhen a teenager is kidnapped during a daring bank robbery, her mother vows to find her.\n\n &lt;a href=&quot;\nhttp://img40.imageshack.us/img40/9787/dalej.png&quot; rel=&quot;nofollow&quot; target=&quot;_NEW&quot;&gt;\nhttp://img40.imageshack.us/img40/9787/dalej.png&lt;/a&gt; &lt;a href=&quot;\nhttp://img51.imageshack.us/img51/5742/dale1r.png&quot; rel=&quot;nofollow&quot; target=&quot;_NEW&quot;&gt;\nhttp://img51.imageshack.us/img51/5742/dale1r.png&lt;/a&gt; &lt;a href=&quot;\nhttp://img24.imageshack.us/img24/2118/dale2.png&quot; rel=&quot;nofollow&quot; target=&quot;_NEW&quot;&gt;\nhttp://img24.imageshack.us/img24/2118/dale2.png&lt;/a&gt; &lt;a href=&quot;\nhttp://img62.imageshack.us/img62/8348/dale3.png&quot; rel=&quot;nofollow&quot; target=&quot;_NEW&quot;&gt;\nhttp://img62.imageshack.us/img62/8348/dale3.png&lt;/a&gt;","torrent":{"xt":"urn:btih:d1814dbe703512e2870e447ebf7856f54cde24b8","amp;dn":"Teenage+Bank+Heist+2012+DVDRip+XviD+juggs","amp;tr":["udp%3A%2F%2Ftracker.openbittorrent.com%3A80","udp%3A%2F%2Fopen.demonii.com%3A1337","udp%3A%2F%2Ftracker.coppersurfer.tk%3A6969","udp%3A%2F%2Fexodus.desync.com%3A6969"],"infoHash":"d1814dbe703512e2870e447ebf7856f54cde24b8","infoHashBuffer":{"type":"Buffer","data":[209,129,77,190,112,53,18,226,135,14,68,126,191,120,86,245,76,222,36,184]},"announce":[],"urlList":[]}}